<svg width="201" height="27" viewBox="0 0 201 27" fill="none" xmlns="http://www.w3.org/2000/svg">
<path d="M71.4018 2.45237C75.462 -0.0570906 80.8748 -0.207521 85.0746 2.05304C88.0859 3.64897 90.3191 6.57964 91.1 9.89185C92.1626 14.1832 91.26 19.0914 88.1707 22.3584C86.8319 23.8108 85.1142 24.8734 83.2694 25.553C80.4974 26.5158 77.4327 26.5773 74.6128 25.7801C72.4644 25.1455 70.4541 23.964 68.9538 22.2887C67.8735 21.1906 67.1186 19.8134 66.5374 18.3967C65.2533 14.934 65.3627 10.9695 66.8656 7.59299C67.8516 5.49654 69.4421 3.68863 71.4018 2.45237ZM75.5769 6.52083C74.8412 6.86409 74.1396 7.30854 73.5844 7.9089C72.1594 9.34072 71.5358 11.4057 71.5508 13.3928C71.5536 15.2472 72.0514 17.1946 73.3191 18.5936C75.1858 20.8282 78.5295 21.367 81.1893 20.422C83.0355 19.7888 84.4906 18.238 85.1252 16.4069C85.8226 14.4089 85.7857 12.1606 85.0527 10.1777C84.3456 8.30959 82.736 6.77246 80.7969 6.24595C79.0915 5.7468 77.2221 5.85347 75.5769 6.52083Z" fill="#111827"/>
<path d="M0.0922852 25.843C0.0922852 17.5461 0.0922852 9.25051 0.0922852 0.953571C2.72482 0.956306 5.35599 0.9481 7.98853 0.957673C10.0152 0.986392 12.0693 1.6223 13.6338 2.93515C14.4188 3.63671 15.1299 4.43946 15.5798 5.39948C15.6181 5.47059 15.6947 5.61419 15.733 5.6853C16.6191 7.77082 16.7094 10.2023 15.9067 12.3275C15.1217 14.4554 13.3398 16.1744 11.2091 16.9334C9.4942 17.6158 7.61519 17.531 5.80592 17.5392C5.79771 20.3072 5.80455 23.0751 5.80181 25.843C3.89818 25.843 1.99592 25.843 0.0922852 25.843ZM5.80181 6.28702C5.80045 8.2604 5.80318 10.2338 5.80045 12.2072C7.04902 12.1237 8.49316 12.4725 9.55164 11.6205C10.8864 10.4444 10.8946 8.08262 9.58583 6.88328C8.51914 6.01351 7.06543 6.35677 5.80181 6.28702Z" fill="#111827"/>
<path d="M17.1753 0.953613C21.6773 0.953613 26.1779 0.953613 30.6799 0.953613C30.6799 2.73143 30.6799 4.50925 30.6799 6.28707C28.0706 6.28707 25.4599 6.28707 22.8506 6.28707C22.8506 7.54111 22.8506 8.79379 22.8506 10.0478C25.2206 10.0478 27.5919 10.0478 29.9619 10.0478C29.9619 11.8257 29.9619 13.6035 29.9619 15.3813C27.5919 15.3813 25.2206 15.3813 22.8506 15.3813C22.8506 17.0907 22.8506 18.8002 22.8506 20.5096C25.5857 20.5096 28.3208 20.5096 31.0559 20.5096C31.0559 22.2874 31.0559 24.0652 31.0559 25.8431C26.4295 25.8431 21.8017 25.8431 17.1753 25.8431C17.1753 17.5461 17.1753 9.25055 17.1753 0.953613Z" fill="#111827"/>
<path d="M32.4805 0.953571C35.3387 0.956306 38.1968 0.9481 41.055 0.957673C42.7645 0.982289 44.4917 1.39666 45.9468 2.31565C47.5509 3.31123 48.8049 4.89622 49.2959 6.73011C49.6911 8.21117 49.7034 9.80163 49.2891 11.2786C49.1701 11.5945 49.0689 11.9172 48.9403 12.229C48.3277 13.5337 47.2528 14.5566 45.996 15.239C47.5304 18.7933 49.1865 22.2929 50.725 25.8444C48.6463 25.8403 46.569 25.8444 44.4903 25.843C42.666 21.8142 40.8622 17.7772 39.0461 13.7456C38.8109 13.1562 38.4813 12.6078 38.2912 12.0007C38.2625 12.0143 38.2037 12.0403 38.175 12.054C38.1298 16.649 38.1695 21.2467 38.1558 25.843C36.2645 25.843 34.3718 25.843 32.4805 25.843C32.4805 17.5461 32.4805 9.25051 32.4805 0.953571ZM38.1558 6.28702C38.1736 8.11134 38.1203 9.93839 38.1818 11.7627C39.2799 11.7258 40.3836 11.8174 41.4776 11.7066C42.2845 11.6342 42.971 11.0912 43.3799 10.4157C43.8284 9.49803 43.8161 8.33151 43.2527 7.46448C42.7891 6.72737 41.9275 6.32942 41.0742 6.2966C40.1018 6.27198 39.1281 6.29386 38.1558 6.28702Z" fill="#111827"/>
<path d="M51.813 0.953613C56.2001 0.953613 60.5886 0.953613 64.9757 0.953613C64.9757 2.73143 64.9757 4.50925 64.9757 6.28707C62.4799 6.28707 59.9841 6.28707 57.4883 6.28707C57.4856 7.78043 57.4938 9.2738 57.4829 10.7672C59.7407 10.7644 61.9985 10.7644 64.2563 10.7672C64.2632 12.545 64.2509 14.3228 64.2632 16.1006C62.0054 16.0979 59.7475 16.0979 57.4897 16.1006C57.4856 19.3486 57.4897 22.5951 57.4883 25.8431C55.597 25.8431 53.7043 25.8431 51.813 25.8431C51.813 17.5461 51.813 9.25055 51.813 0.953613Z" fill="#111827"/>
<path d="M92.6045 0.953516C95.3177 0.952149 98.0309 0.954884 100.744 0.952148C101.875 0.953516 103.014 1.06018 104.096 1.40618C106.013 2.02157 107.776 3.28793 108.747 5.08079C109.967 7.28665 110.067 10.0942 108.993 12.3794C108.374 13.6143 107.332 14.5962 106.116 15.2376C107.671 18.7837 109.316 22.2901 110.85 25.843C108.78 25.843 106.708 25.8443 104.638 25.8416C102.533 21.2425 100.464 16.6257 98.4138 12.0006C98.3851 12.0143 98.3277 12.0416 98.299 12.0539C98.2539 16.6489 98.2921 21.2466 98.2798 25.843C96.3871 25.843 94.4958 25.843 92.6045 25.843C92.6045 17.546 92.6045 9.25045 92.6045 0.953516ZM98.2798 6.28697C98.2962 8.11128 98.2443 9.93833 98.3058 11.7613C99.218 11.7517 100.132 11.7626 101.044 11.7558C101.719 11.7339 102.448 11.5972 102.943 11.0994C104.196 10.0286 104.108 7.79128 102.776 6.81895C102.277 6.44971 101.651 6.29791 101.037 6.2897C100.118 6.2815 99.1988 6.2897 98.2798 6.28697Z" fill="#111827"/>
<path d="M111.937 0.953636C113.762 0.955004 115.588 0.950901 117.414 0.955004C117.399 9.25194 117.411 17.5475 117.407 25.8431C115.584 25.8431 113.759 25.8431 111.937 25.8431C111.937 17.5461 111.937 9.25057 111.937 0.953636Z" fill="#111827"/>
<path d="M117.435 0.957701C119.136 0.952231 120.838 0.948129 122.54 0.960437C122.943 5.15472 123.338 9.35037 123.74 13.546C124.021 16.2948 124.226 19.0531 124.557 21.7951C125.231 14.8452 125.954 7.89939 126.674 0.953599C128.385 0.956334 130.094 0.949496 131.805 0.957701C131.046 7.92401 130.372 14.8985 129.651 21.8689C126.235 21.8867 122.819 21.8717 119.401 21.8771C118.765 14.9026 118.064 7.93222 117.435 0.957701Z" fill="#111827"/>
<path d="M131.826 0.955004C133.709 0.950901 135.593 0.955004 137.476 0.953636C137.476 9.25057 137.476 17.5461 137.476 25.8431C135.584 25.8431 133.692 25.8431 131.801 25.8431C131.801 21.0101 131.801 16.1772 131.801 11.3457C131.816 7.88165 131.768 4.41764 131.826 0.955004Z" fill="#111827"/>
<path d="M154.943 0.953333C156.781 0.9547 158.619 0.950597 160.457 0.956067C160.359 4.05084 160.44 7.15108 160.414 10.2486C160.414 15.4466 160.414 20.6447 160.414 25.8428C158.589 25.8428 156.766 25.8428 154.943 25.8428C154.943 17.5458 154.943 9.25027 154.943 0.953333Z" fill="#111827"/>
<path d="M160.473 0.957521C162.4 0.950683 164.328 0.950683 166.256 0.957521C167.45 7.59015 168.678 14.2159 169.887 20.8458C170.163 22.5115 170.552 24.1608 170.753 25.8374C168.823 25.847 166.893 25.8456 164.965 25.8388C163.837 19.6985 162.73 13.5554 161.594 7.41783C161.23 5.26257 160.756 3.12509 160.473 0.957521Z" fill="#111827"/>
<path d="M170.807 0.953613C172.63 0.953613 174.453 0.953613 176.277 0.953613C176.277 9.25055 176.277 17.5461 176.277 25.8431C174.441 25.8417 172.604 25.8458 170.768 25.8417C170.856 22.5158 170.783 19.1872 170.807 15.8613C170.807 10.8916 170.807 5.9233 170.807 0.953613Z" fill="#111827"/>
<path d="M178.42 0.953342C180.458 0.953342 182.497 0.953342 184.536 0.953342C186.127 0.972488 187.73 0.883596 189.312 1.10787C190.324 1.22548 191.308 1.5072 192.276 1.81627C192.645 1.95165 192.993 2.14038 193.365 2.27303C195.531 3.33015 197.44 4.98488 198.572 7.13194C200.245 10.1939 200.476 13.9205 199.566 17.2559C198.932 19.6109 197.479 21.7087 195.547 23.1884C193.211 24.9935 190.223 25.8086 187.299 25.8373C184.339 25.8496 181.379 25.8387 178.42 25.8428C178.42 17.5458 178.42 9.25028 178.42 0.953342ZM184.095 6.28679C184.095 11.0281 184.095 15.768 184.095 20.5093C185.213 20.5025 186.331 20.523 187.45 20.4998C188.823 20.4615 190.211 20.1168 191.364 19.351C192.318 18.7219 193.08 17.8016 193.533 16.7513C194.014 15.6586 194.214 14.4524 194.184 13.2627C194.191 11.7242 193.783 10.1488 192.871 8.89472C191.993 7.66665 190.618 6.84339 189.159 6.51107C187.496 6.1432 185.781 6.33466 184.095 6.28679Z" fill="#111827"/>
<path d="M143.794 0.953613C145.692 0.953613 147.59 0.953613 149.488 0.953613C148.881 3.5588 148.282 6.16535 147.679 8.77191C148.969 8.54626 150.257 8.3001 151.545 8.06078C150.87 11.0393 150.171 14.0124 149.487 16.9882C147.593 16.9936 145.699 16.9772 143.806 16.9964C144.128 15.5645 144.467 14.1354 144.799 12.7064C143.496 12.9785 142.18 13.1768 140.875 13.4394C141.855 9.27927 142.834 5.11918 143.794 0.953613Z" fill="#B0F221"/>
<path d="M143.52 20.6639C144.502 18.815 147.219 18.3131 148.844 19.6081C150.556 20.8362 150.765 23.5385 149.395 25.0961C148.328 26.3734 146.327 26.6962 144.889 25.8811C144.143 25.5351 143.65 24.8445 143.27 24.1429C142.869 23.0147 142.87 21.7005 143.52 20.6639Z" fill="#B0F221"/>
</svg>
